<?xml version="1.0" standalone="no"?>
<!DOCTYPE svg PUBLIC "-//W3C//DTD SVG 20010904//EN"
 "http://www.w3.org/TR/2001/REC-SVG-20010904/DTD/svg10.dtd">
<svg version="1.0" xmlns="http://www.w3.org/2000/svg"
 width="1024.000000pt" height="1024.000000pt" viewBox="0 0 1024.000000 1024.000000"
 preserveAspectRatio="xMidYMid meet">
<metadata>
Created by potrace 1.14, written by Peter Selinger 2001-2017
</metadata>
<g transform="translate(0.000000,1024.000000) scale(0.100000,-0.100000)"
fill="#000000" stroke="none">
<path d="M0 5120 l0 -5120 5120 0 5120 0 0 5120 0 5120 -5120 0 -5120 0 0
-5120z m5616 2018 l371 -963 1333 -3 1332 -2 322 -236 c176 -129 323 -240 325
-245 1 -6 -336 -894 -750 -1974 l-754 -1964 -1370 6 c-753 3 -1371 7 -1373 8
-1 1 -168 431 -370 956 l-367 954 -1300 5 -1300 5 -353 259 c-194 142 -352
262 -350 266 2 4 338 881 748 1949 l745 1941 1370 0 1371 0 370 -962z m4611
950 c-2 -7 -80 -210 -173 -450 -92 -241 -171 -438 -174 -438 -17 0 -675 492
-672 503 2 10 109 310 133 375 l9 22 441 0 c349 0 440 -3 436 -12z m-879
-1186 l332 -244 -14 -31 c-7 -18 -44 -114 -82 -214 -45 -119 -73 -181 -81
-178 -17 6 -641 464 -648 475 -7 11 147 441 155 438 4 -2 156 -113 338 -246z
m-8198 -3487 c157 -114 292 -215 302 -224 16 -16 3 -60 -127 -408 l-16 -42
-322 236 c-177 129 -328 241 -335 247 -10 10 3 54 70 229 l82 216 31 -23 c16
-12 158 -116 315 -231z m-370 -970 c179 -131 327 -239 329 -241 2 -2 -32 -103
-75 -224 l-79 -220 -442 0 -441 0 37 98 c21 53 102 265 181 470 99 259 146
370 154 363 6 -4 157 -115 336 -246z"/>
<path d="M2927 7415 c-3 -11 -18 -76 -32 -145 -35 -162 -104 -424 -162 -614
-67 -221 -137 -415 -506 -1401 l-334 -890 1075 -3 c592 -1 1077 0 1079 2 3 2
-153 422 -345 933 -485 1288 -583 1559 -702 1944 -21 69 -45 141 -53 160 -12
29 -15 31 -20 14z"/>
<path d="M6250 5491 c0 -5 115 -314 256 -687 549 -1456 671 -1791 784 -2161
78 -255 70 -231 79 -213 4 8 20 74 36 145 62 293 166 653 278 970 46 127 610
1641 724 1943 4 9 -215 12 -1076 12 -632 0 -1081 -4 -1081 -9z"/>
</g>
</svg>
